# xmcd
#
# Track frame offsets: 
#        150
#        23953
#        47350
#        65005
#        93323
#        116015
#        133275
#        152150
#
# Disc length: 2520 seconds
#
# Revision: 1
# Processed by: cddbd v1.5.2PL0 Copyright (c) Steve Scherf et al.
# Submitted via: ExactAudioCopy v1.0b1
#
DISCID=6a09d608
DTITLE=DŻEM - Cegła
DYEAR=1995
DGENRE=blues rock 
TTITLE0=Czerwony Jak Cegła
TTITLE1=Whisky
TTITLE2=Nieudany Skok
TTITLE3=Ballada O Dziwnym Malarzu
TTITLE4=Jesiony
TTITLE5=Powiał Boczny Wiatr
TTITLE6=Kim Jestem - Jestem Sobie
TTITLE7=Oh, Słodka
EXTD=
EXTT0=
EXTT1=
EXTT2=
EXTT3=
EXTT4=
EXTT5=
EXTT6=
EXTT7=
PLAYORDER=
